<mxfile host="app.diagrams.net" modified="2022-05-06T20:48:37.400Z" agent="5.0 (Windows NT 10.0; Win64; x64) AppleWebKit/537.36 (KHTML, like Gecko) Chrome/101.0.4951.54 Safari/537.36" etag="5aouKJv-dWNDadxjrn7p" version="16.6.2" type="github">
  <diagram id="ok66DPMpvX4XdYNEMJjz" name="Page-1">
    <mxGraphModel dx="1888" dy="539" grid="1" gridSize="10" guides="1" tooltips="1" connect="1" arrows="1" fold="1" page="1" pageScale="1" pageWidth="850" pageHeight="1100" math="0" shadow="0">
      <root>
        <mxCell id="0" />
        <mxCell id="1" parent="0" />
        <mxCell id="o8kuV6Bx12vgrlG-1OTU-1" value="Has" style="rhombus;whiteSpace=wrap;html=1;" parent="1" vertex="1">
          <mxGeometry x="380" y="240" width="80" height="80" as="geometry" />
        </mxCell>
        <mxCell id="o8kuV6Bx12vgrlG-1OTU-2" value="Login" style="rounded=0;whiteSpace=wrap;html=1;" parent="1" vertex="1">
          <mxGeometry x="355" y="160" width="130" height="40" as="geometry" />
        </mxCell>
        <mxCell id="o8kuV6Bx12vgrlG-1OTU-3" value="Roles" style="rounded=0;whiteSpace=wrap;html=1;" parent="1" vertex="1">
          <mxGeometry x="540" y="260" width="130" height="40" as="geometry" />
        </mxCell>
        <mxCell id="o8kuV6Bx12vgrlG-1OTU-4" value="User" style="rounded=0;whiteSpace=wrap;html=1;" parent="1" vertex="1">
          <mxGeometry x="190" y="260" width="130" height="40" as="geometry" />
        </mxCell>
        <mxCell id="o8kuV6Bx12vgrlG-1OTU-5" value="role_name" style="ellipse;whiteSpace=wrap;html=1;" parent="1" vertex="1">
          <mxGeometry x="570" y="155" width="100" height="50" as="geometry" />
        </mxCell>
        <mxCell id="o8kuV6Bx12vgrlG-1OTU-6" value="role_name" style="ellipse;whiteSpace=wrap;html=1;" parent="1" vertex="1">
          <mxGeometry x="690" y="200" width="100" height="50" as="geometry" />
        </mxCell>
        <mxCell id="o8kuV6Bx12vgrlG-1OTU-8" value="login_username" style="ellipse;whiteSpace=wrap;html=1;" parent="1" vertex="1">
          <mxGeometry x="350" y="30" width="100" height="50" as="geometry" />
        </mxCell>
        <mxCell id="o8kuV6Bx12vgrlG-1OTU-9" value="login_id" style="ellipse;whiteSpace=wrap;html=1;" parent="1" vertex="1">
          <mxGeometry x="220" y="80" width="100" height="50" as="geometry" />
        </mxCell>
        <mxCell id="o8kuV6Bx12vgrlG-1OTU-10" value="login_password" style="ellipse;whiteSpace=wrap;html=1;" parent="1" vertex="1">
          <mxGeometry x="485" y="70" width="100" height="50" as="geometry" />
        </mxCell>
        <mxCell id="o8kuV6Bx12vgrlG-1OTU-11" value="user_id" style="ellipse;whiteSpace=wrap;html=1;" parent="1" vertex="1">
          <mxGeometry x="100" y="170" width="100" height="50" as="geometry" />
        </mxCell>
        <mxCell id="o8kuV6Bx12vgrlG-1OTU-12" value="user_name" style="ellipse;whiteSpace=wrap;html=1;" parent="1" vertex="1">
          <mxGeometry x="30" y="240" width="100" height="50" as="geometry" />
        </mxCell>
        <mxCell id="o8kuV6Bx12vgrlG-1OTU-13" value="user_email" style="ellipse;whiteSpace=wrap;html=1;" parent="1" vertex="1">
          <mxGeometry x="60" y="320" width="100" height="50" as="geometry" />
        </mxCell>
        <mxCell id="o8kuV6Bx12vgrlG-1OTU-14" value="user_phone" style="ellipse;whiteSpace=wrap;html=1;" parent="1" vertex="1">
          <mxGeometry x="180" y="350" width="100" height="50" as="geometry" />
        </mxCell>
        <mxCell id="o8kuV6Bx12vgrlG-1OTU-16" value="Permission" style="rounded=0;whiteSpace=wrap;html=1;" parent="1" vertex="1">
          <mxGeometry x="570" y="430" width="130" height="40" as="geometry" />
        </mxCell>
        <mxCell id="o8kuV6Bx12vgrlG-1OTU-17" value="per_id" style="ellipse;whiteSpace=wrap;html=1;" parent="1" vertex="1">
          <mxGeometry x="660" y="330" width="100" height="50" as="geometry" />
        </mxCell>
        <mxCell id="o8kuV6Bx12vgrlG-1OTU-18" value="per_name" style="ellipse;whiteSpace=wrap;html=1;" parent="1" vertex="1">
          <mxGeometry x="740" y="410" width="100" height="50" as="geometry" />
        </mxCell>
        <mxCell id="o8kuV6Bx12vgrlG-1OTU-19" value="per_module" style="ellipse;whiteSpace=wrap;html=1;" parent="1" vertex="1">
          <mxGeometry x="690" y="500" width="100" height="50" as="geometry" />
        </mxCell>
        <mxCell id="o8kuV6Bx12vgrlG-1OTU-20" value="Manages" style="rhombus;whiteSpace=wrap;html=1;" parent="1" vertex="1">
          <mxGeometry x="385" y="550" width="80" height="80" as="geometry" />
        </mxCell>
        <mxCell id="o8kuV6Bx12vgrlG-1OTU-21" value="Bill" style="rounded=0;whiteSpace=wrap;html=1;" parent="1" vertex="1">
          <mxGeometry x="360" y="720" width="130" height="40" as="geometry" />
        </mxCell>
        <mxCell id="o8kuV6Bx12vgrlG-1OTU-22" value="Stock" style="rounded=0;whiteSpace=wrap;html=1;" parent="1" vertex="1">
          <mxGeometry x="220" y="920" width="130" height="40" as="geometry" />
        </mxCell>
        <mxCell id="o8kuV6Bx12vgrlG-1OTU-23" value="Product" style="rounded=0;whiteSpace=wrap;html=1;" parent="1" vertex="1">
          <mxGeometry x="50" y="720" width="130" height="40" as="geometry" />
        </mxCell>
        <mxCell id="o8kuV6Bx12vgrlG-1OTU-24" value="pro_name" style="ellipse;whiteSpace=wrap;html=1;" parent="1" vertex="1">
          <mxGeometry x="60" y="630" width="100" height="50" as="geometry" />
        </mxCell>
        <mxCell id="o8kuV6Bx12vgrlG-1OTU-25" value="pro_type" style="ellipse;whiteSpace=wrap;html=1;" parent="1" vertex="1">
          <mxGeometry x="60" y="810" width="100" height="50" as="geometry" />
        </mxCell>
        <mxCell id="o8kuV6Bx12vgrlG-1OTU-26" value="pro_id" style="ellipse;whiteSpace=wrap;html=1;" parent="1" vertex="1">
          <mxGeometry x="-70" y="670" width="100" height="50" as="geometry" />
        </mxCell>
        <mxCell id="o8kuV6Bx12vgrlG-1OTU-27" value="pro_desc" style="ellipse;whiteSpace=wrap;html=1;" parent="1" vertex="1">
          <mxGeometry x="-70" y="760" width="100" height="50" as="geometry" />
        </mxCell>
        <mxCell id="o8kuV6Bx12vgrlG-1OTU-28" value="bill_date" style="ellipse;whiteSpace=wrap;html=1;" parent="1" vertex="1">
          <mxGeometry x="465" y="630" width="100" height="50" as="geometry" />
        </mxCell>
        <mxCell id="o8kuV6Bx12vgrlG-1OTU-29" value="bill_num" style="ellipse;whiteSpace=wrap;html=1;" parent="1" vertex="1">
          <mxGeometry x="565" y="670" width="100" height="50" as="geometry" />
        </mxCell>
        <mxCell id="o8kuV6Bx12vgrlG-1OTU-30" value="bill_desc" style="ellipse;whiteSpace=wrap;html=1;" parent="1" vertex="1">
          <mxGeometry x="460" y="790" width="100" height="50" as="geometry" />
        </mxCell>
        <mxCell id="o8kuV6Bx12vgrlG-1OTU-31" value="bill_id" style="ellipse;whiteSpace=wrap;html=1;" parent="1" vertex="1">
          <mxGeometry x="565" y="740" width="100" height="50" as="geometry" />
        </mxCell>
        <mxCell id="o8kuV6Bx12vgrlG-1OTU-32" value="Has" style="rhombus;whiteSpace=wrap;html=1;" parent="1" vertex="1">
          <mxGeometry x="240" y="800" width="80" height="80" as="geometry" />
        </mxCell>
        <mxCell id="o8kuV6Bx12vgrlG-1OTU-34" value="" style="endArrow=none;html=1;rounded=0;entryX=0.5;entryY=1;entryDx=0;entryDy=0;" parent="1" target="o8kuV6Bx12vgrlG-1OTU-8" edge="1">
          <mxGeometry width="50" height="50" relative="1" as="geometry">
            <mxPoint x="410" y="160" as="sourcePoint" />
            <mxPoint x="450" y="290" as="targetPoint" />
          </mxGeometry>
        </mxCell>
        <mxCell id="o8kuV6Bx12vgrlG-1OTU-35" value="" style="endArrow=none;html=1;rounded=0;entryX=0;entryY=1;entryDx=0;entryDy=0;exitX=0.75;exitY=0;exitDx=0;exitDy=0;" parent="1" source="o8kuV6Bx12vgrlG-1OTU-2" target="o8kuV6Bx12vgrlG-1OTU-10" edge="1">
          <mxGeometry width="50" height="50" relative="1" as="geometry">
            <mxPoint x="409.98" y="171.39999999999998" as="sourcePoint" />
            <mxPoint x="410" y="90" as="targetPoint" />
          </mxGeometry>
        </mxCell>
        <mxCell id="o8kuV6Bx12vgrlG-1OTU-36" value="" style="endArrow=none;html=1;rounded=0;entryX=1;entryY=1;entryDx=0;entryDy=0;exitX=0;exitY=0;exitDx=0;exitDy=0;" parent="1" source="o8kuV6Bx12vgrlG-1OTU-2" target="o8kuV6Bx12vgrlG-1OTU-9" edge="1">
          <mxGeometry width="50" height="50" relative="1" as="geometry">
            <mxPoint x="419.98" y="181.39999999999998" as="sourcePoint" />
            <mxPoint x="420" y="100" as="targetPoint" />
          </mxGeometry>
        </mxCell>
        <mxCell id="o8kuV6Bx12vgrlG-1OTU-37" value="" style="endArrow=none;html=1;rounded=0;entryX=0.744;entryY=0.932;entryDx=0;entryDy=0;entryPerimeter=0;" parent="1" source="o8kuV6Bx12vgrlG-1OTU-4" target="o8kuV6Bx12vgrlG-1OTU-11" edge="1">
          <mxGeometry width="50" height="50" relative="1" as="geometry">
            <mxPoint x="365" y="170" as="sourcePoint" />
            <mxPoint x="315.35533905932743" y="132.67766952966372" as="targetPoint" />
          </mxGeometry>
        </mxCell>
        <mxCell id="o8kuV6Bx12vgrlG-1OTU-38" value="" style="endArrow=none;html=1;rounded=0;entryX=0.98;entryY=0.668;entryDx=0;entryDy=0;entryPerimeter=0;exitX=0;exitY=0.5;exitDx=0;exitDy=0;" parent="1" source="o8kuV6Bx12vgrlG-1OTU-4" target="o8kuV6Bx12vgrlG-1OTU-12" edge="1">
          <mxGeometry width="50" height="50" relative="1" as="geometry">
            <mxPoint x="239.57413249211368" y="270" as="sourcePoint" />
            <mxPoint x="184.4000000000001" y="226.60000000000002" as="targetPoint" />
          </mxGeometry>
        </mxCell>
        <mxCell id="o8kuV6Bx12vgrlG-1OTU-39" value="" style="endArrow=none;html=1;rounded=0;entryX=1;entryY=0;entryDx=0;entryDy=0;exitX=0;exitY=1;exitDx=0;exitDy=0;" parent="1" source="o8kuV6Bx12vgrlG-1OTU-4" target="o8kuV6Bx12vgrlG-1OTU-13" edge="1">
          <mxGeometry width="50" height="50" relative="1" as="geometry">
            <mxPoint x="249.57413249211368" y="280" as="sourcePoint" />
            <mxPoint x="194.4000000000001" y="236.60000000000002" as="targetPoint" />
          </mxGeometry>
        </mxCell>
        <mxCell id="o8kuV6Bx12vgrlG-1OTU-40" value="" style="endArrow=none;html=1;rounded=0;exitX=0.342;exitY=0.995;exitDx=0;exitDy=0;exitPerimeter=0;" parent="1" source="o8kuV6Bx12vgrlG-1OTU-4" edge="1">
          <mxGeometry width="50" height="50" relative="1" as="geometry">
            <mxPoint x="237" y="310" as="sourcePoint" />
            <mxPoint x="222" y="350" as="targetPoint" />
          </mxGeometry>
        </mxCell>
        <mxCell id="o8kuV6Bx12vgrlG-1OTU-41" value="" style="endArrow=none;html=1;rounded=0;exitX=0.42;exitY=0.992;exitDx=0;exitDy=0;exitPerimeter=0;" parent="1" source="o8kuV6Bx12vgrlG-1OTU-5" target="o8kuV6Bx12vgrlG-1OTU-3" edge="1">
          <mxGeometry width="50" height="50" relative="1" as="geometry">
            <mxPoint x="269.5741324921137" y="300" as="sourcePoint" />
            <mxPoint x="214.4000000000001" y="256.6" as="targetPoint" />
          </mxGeometry>
        </mxCell>
        <mxCell id="o8kuV6Bx12vgrlG-1OTU-42" value="" style="endArrow=none;html=1;rounded=0;entryX=1;entryY=0;entryDx=0;entryDy=0;" parent="1" source="o8kuV6Bx12vgrlG-1OTU-6" target="o8kuV6Bx12vgrlG-1OTU-3" edge="1">
          <mxGeometry width="50" height="50" relative="1" as="geometry">
            <mxPoint x="622" y="214.60000000000002" as="sourcePoint" />
            <mxPoint x="616.8567639257294" y="270" as="targetPoint" />
          </mxGeometry>
        </mxCell>
        <mxCell id="o8kuV6Bx12vgrlG-1OTU-43" value="" style="endArrow=none;html=1;rounded=0;exitX=1;exitY=0.25;exitDx=0;exitDy=0;" parent="1" source="o8kuV6Bx12vgrlG-1OTU-16" edge="1">
          <mxGeometry width="50" height="50" relative="1" as="geometry">
            <mxPoint x="632" y="224.60000000000002" as="sourcePoint" />
            <mxPoint x="740" y="440" as="targetPoint" />
          </mxGeometry>
        </mxCell>
        <mxCell id="o8kuV6Bx12vgrlG-1OTU-44" value="" style="endArrow=none;html=1;rounded=0;exitX=0.5;exitY=1;exitDx=0;exitDy=0;entryX=0.5;entryY=0;entryDx=0;entryDy=0;" parent="1" source="o8kuV6Bx12vgrlG-1OTU-2" target="o8kuV6Bx12vgrlG-1OTU-1" edge="1">
          <mxGeometry width="50" height="50" relative="1" as="geometry">
            <mxPoint x="642" y="234.60000000000002" as="sourcePoint" />
            <mxPoint x="636.8567639257294" y="290" as="targetPoint" />
          </mxGeometry>
        </mxCell>
        <mxCell id="o8kuV6Bx12vgrlG-1OTU-45" value="" style="endArrow=none;html=1;rounded=0;entryX=1;entryY=0.5;entryDx=0;entryDy=0;" parent="1" source="o8kuV6Bx12vgrlG-1OTU-3" target="o8kuV6Bx12vgrlG-1OTU-1" edge="1">
          <mxGeometry width="50" height="50" relative="1" as="geometry">
            <mxPoint x="652" y="244.60000000000002" as="sourcePoint" />
            <mxPoint x="646.8567639257294" y="300" as="targetPoint" />
          </mxGeometry>
        </mxCell>
        <mxCell id="o8kuV6Bx12vgrlG-1OTU-48" value="" style="endArrow=none;html=1;rounded=0;exitX=1;exitY=0.5;exitDx=0;exitDy=0;entryX=0;entryY=0.5;entryDx=0;entryDy=0;" parent="1" source="o8kuV6Bx12vgrlG-1OTU-4" target="o8kuV6Bx12vgrlG-1OTU-1" edge="1">
          <mxGeometry width="50" height="50" relative="1" as="geometry">
            <mxPoint x="672" y="264.6" as="sourcePoint" />
            <mxPoint x="666.8567639257294" y="320" as="targetPoint" />
          </mxGeometry>
        </mxCell>
        <mxCell id="o8kuV6Bx12vgrlG-1OTU-49" value="" style="endArrow=none;html=1;rounded=0;entryX=0.5;entryY=1;entryDx=0;entryDy=0;" parent="1" target="o8kuV6Bx12vgrlG-1OTU-1" edge="1">
          <mxGeometry width="50" height="50" relative="1" as="geometry">
            <mxPoint x="420" y="440" as="sourcePoint" />
            <mxPoint x="450" y="390" as="targetPoint" />
          </mxGeometry>
        </mxCell>
        <mxCell id="o8kuV6Bx12vgrlG-1OTU-50" value="" style="endArrow=none;html=1;rounded=0;entryX=0;entryY=0.25;entryDx=0;entryDy=0;" parent="1" target="o8kuV6Bx12vgrlG-1OTU-16" edge="1">
          <mxGeometry width="50" height="50" relative="1" as="geometry">
            <mxPoint x="420" y="440" as="sourcePoint" />
            <mxPoint x="450" y="390" as="targetPoint" />
          </mxGeometry>
        </mxCell>
        <mxCell id="o8kuV6Bx12vgrlG-1OTU-51" value="" style="endArrow=none;html=1;rounded=0;exitX=0.5;exitY=1;exitDx=0;exitDy=0;entryX=0.75;entryY=0;entryDx=0;entryDy=0;" parent="1" source="o8kuV6Bx12vgrlG-1OTU-17" target="o8kuV6Bx12vgrlG-1OTU-16" edge="1">
          <mxGeometry width="50" height="50" relative="1" as="geometry">
            <mxPoint x="684.6446609406726" y="347.3223304703363" as="sourcePoint" />
            <mxPoint x="663.6199999999999" y="309.79999999999995" as="targetPoint" />
          </mxGeometry>
        </mxCell>
        <mxCell id="o8kuV6Bx12vgrlG-1OTU-52" value="" style="endArrow=none;html=1;rounded=0;entryX=0.883;entryY=1.005;entryDx=0;entryDy=0;entryPerimeter=0;" parent="1" source="o8kuV6Bx12vgrlG-1OTU-19" target="o8kuV6Bx12vgrlG-1OTU-16" edge="1">
          <mxGeometry width="50" height="50" relative="1" as="geometry">
            <mxPoint x="694.6446609406726" y="357.3223304703363" as="sourcePoint" />
            <mxPoint x="673.6199999999999" y="319.79999999999995" as="targetPoint" />
          </mxGeometry>
        </mxCell>
        <mxCell id="o8kuV6Bx12vgrlG-1OTU-53" value="" style="endArrow=none;html=1;rounded=0;exitX=0.883;exitY=0.995;exitDx=0;exitDy=0;exitPerimeter=0;" parent="1" source="o8kuV6Bx12vgrlG-1OTU-4" edge="1">
          <mxGeometry width="50" height="50" relative="1" as="geometry">
            <mxPoint x="400" y="340" as="sourcePoint" />
            <mxPoint x="305" y="520" as="targetPoint" />
          </mxGeometry>
        </mxCell>
        <mxCell id="o8kuV6Bx12vgrlG-1OTU-54" value="" style="endArrow=none;html=1;rounded=0;" parent="1" edge="1">
          <mxGeometry width="50" height="50" relative="1" as="geometry">
            <mxPoint x="300" y="520" as="sourcePoint" />
            <mxPoint x="420" y="520" as="targetPoint" />
          </mxGeometry>
        </mxCell>
        <mxCell id="o8kuV6Bx12vgrlG-1OTU-55" value="" style="endArrow=none;html=1;rounded=0;entryX=0.5;entryY=0;entryDx=0;entryDy=0;" parent="1" target="o8kuV6Bx12vgrlG-1OTU-20" edge="1">
          <mxGeometry width="50" height="50" relative="1" as="geometry">
            <mxPoint x="420" y="520" as="sourcePoint" />
            <mxPoint x="450" y="290" as="targetPoint" />
          </mxGeometry>
        </mxCell>
        <mxCell id="o8kuV6Bx12vgrlG-1OTU-56" value="" style="endArrow=none;html=1;rounded=0;entryX=0.5;entryY=1;entryDx=0;entryDy=0;exitX=0.5;exitY=0;exitDx=0;exitDy=0;" parent="1" source="o8kuV6Bx12vgrlG-1OTU-21" target="o8kuV6Bx12vgrlG-1OTU-20" edge="1">
          <mxGeometry width="50" height="50" relative="1" as="geometry">
            <mxPoint x="400" y="740" as="sourcePoint" />
            <mxPoint x="450" y="690" as="targetPoint" />
          </mxGeometry>
        </mxCell>
        <mxCell id="o8kuV6Bx12vgrlG-1OTU-57" value="" style="endArrow=none;html=1;rounded=0;entryX=0;entryY=0.5;entryDx=0;entryDy=0;" parent="1" target="o8kuV6Bx12vgrlG-1OTU-20" edge="1">
          <mxGeometry width="50" height="50" relative="1" as="geometry">
            <mxPoint x="200" y="590" as="sourcePoint" />
            <mxPoint x="450" y="690" as="targetPoint" />
          </mxGeometry>
        </mxCell>
        <mxCell id="o8kuV6Bx12vgrlG-1OTU-58" value="" style="endArrow=none;html=1;rounded=0;" parent="1" edge="1">
          <mxGeometry width="50" height="50" relative="1" as="geometry">
            <mxPoint x="200" y="740" as="sourcePoint" />
            <mxPoint x="200" y="590" as="targetPoint" />
          </mxGeometry>
        </mxCell>
        <mxCell id="o8kuV6Bx12vgrlG-1OTU-59" value="" style="endArrow=none;html=1;rounded=0;exitX=1;exitY=0.5;exitDx=0;exitDy=0;" parent="1" source="o8kuV6Bx12vgrlG-1OTU-23" edge="1">
          <mxGeometry width="50" height="50" relative="1" as="geometry">
            <mxPoint x="400" y="740" as="sourcePoint" />
            <mxPoint x="200" y="740" as="targetPoint" />
          </mxGeometry>
        </mxCell>
        <mxCell id="o8kuV6Bx12vgrlG-1OTU-60" value="bill_desc" style="ellipse;whiteSpace=wrap;html=1;" parent="1" vertex="1">
          <mxGeometry x="460" y="790" width="100" height="50" as="geometry" />
        </mxCell>
        <mxCell id="o8kuV6Bx12vgrlG-1OTU-61" value="bill_desc" style="ellipse;whiteSpace=wrap;html=1;" parent="1" vertex="1">
          <mxGeometry x="240" y="1010" width="100" height="50" as="geometry" />
        </mxCell>
        <mxCell id="o8kuV6Bx12vgrlG-1OTU-62" value="bill_desc" style="ellipse;whiteSpace=wrap;html=1;" parent="1" vertex="1">
          <mxGeometry x="380" y="980" width="100" height="50" as="geometry" />
        </mxCell>
        <mxCell id="o8kuV6Bx12vgrlG-1OTU-63" value="bill_desc" style="ellipse;whiteSpace=wrap;html=1;" parent="1" vertex="1">
          <mxGeometry x="90" y="990" width="100" height="50" as="geometry" />
        </mxCell>
        <mxCell id="o8kuV6Bx12vgrlG-1OTU-64" value="" style="endArrow=none;html=1;rounded=0;" parent="1" source="o8kuV6Bx12vgrlG-1OTU-23" edge="1">
          <mxGeometry width="50" height="50" relative="1" as="geometry">
            <mxPoint x="400" y="840" as="sourcePoint" />
            <mxPoint x="110" y="680" as="targetPoint" />
          </mxGeometry>
        </mxCell>
        <mxCell id="o8kuV6Bx12vgrlG-1OTU-66" value="" style="endArrow=none;html=1;rounded=0;entryX=1;entryY=1;entryDx=0;entryDy=0;exitX=0;exitY=0;exitDx=0;exitDy=0;" parent="1" source="o8kuV6Bx12vgrlG-1OTU-23" target="o8kuV6Bx12vgrlG-1OTU-26" edge="1">
          <mxGeometry width="50" height="50" relative="1" as="geometry">
            <mxPoint x="123.33333333333326" y="730" as="sourcePoint" />
            <mxPoint x="120" y="690" as="targetPoint" />
          </mxGeometry>
        </mxCell>
        <mxCell id="o8kuV6Bx12vgrlG-1OTU-67" value="" style="endArrow=none;html=1;rounded=0;entryX=0.956;entryY=0.316;entryDx=0;entryDy=0;entryPerimeter=0;exitX=0;exitY=1;exitDx=0;exitDy=0;" parent="1" source="o8kuV6Bx12vgrlG-1OTU-23" target="o8kuV6Bx12vgrlG-1OTU-27" edge="1">
          <mxGeometry width="50" height="50" relative="1" as="geometry">
            <mxPoint x="133.33333333333326" y="740" as="sourcePoint" />
            <mxPoint x="130" y="700" as="targetPoint" />
          </mxGeometry>
        </mxCell>
        <mxCell id="o8kuV6Bx12vgrlG-1OTU-68" value="" style="endArrow=none;html=1;rounded=0;entryX=0.5;entryY=0;entryDx=0;entryDy=0;exitX=0.5;exitY=1;exitDx=0;exitDy=0;" parent="1" source="o8kuV6Bx12vgrlG-1OTU-23" target="o8kuV6Bx12vgrlG-1OTU-25" edge="1">
          <mxGeometry width="50" height="50" relative="1" as="geometry">
            <mxPoint x="143.33333333333326" y="750" as="sourcePoint" />
            <mxPoint x="140" y="710" as="targetPoint" />
          </mxGeometry>
        </mxCell>
        <mxCell id="o8kuV6Bx12vgrlG-1OTU-69" value="" style="endArrow=none;html=1;rounded=0;entryX=0.334;entryY=0.964;entryDx=0;entryDy=0;entryPerimeter=0;exitX=0.874;exitY=-0.025;exitDx=0;exitDy=0;exitPerimeter=0;" parent="1" source="o8kuV6Bx12vgrlG-1OTU-21" target="o8kuV6Bx12vgrlG-1OTU-28" edge="1">
          <mxGeometry width="50" height="50" relative="1" as="geometry">
            <mxPoint x="153.33333333333326" y="760" as="sourcePoint" />
            <mxPoint x="150" y="720" as="targetPoint" />
          </mxGeometry>
        </mxCell>
        <mxCell id="o8kuV6Bx12vgrlG-1OTU-70" value="" style="endArrow=none;html=1;rounded=0;entryX=0.03;entryY=0.644;entryDx=0;entryDy=0;entryPerimeter=0;exitX=1;exitY=0;exitDx=0;exitDy=0;exitPerimeter=0;" parent="1" source="o8kuV6Bx12vgrlG-1OTU-21" target="o8kuV6Bx12vgrlG-1OTU-29" edge="1">
          <mxGeometry width="50" height="50" relative="1" as="geometry">
            <mxPoint x="483.6199999999999" y="729" as="sourcePoint" />
            <mxPoint x="508.4000000000001" y="688.2" as="targetPoint" />
          </mxGeometry>
        </mxCell>
        <mxCell id="o8kuV6Bx12vgrlG-1OTU-71" value="" style="endArrow=none;html=1;rounded=0;entryX=0;entryY=0.5;entryDx=0;entryDy=0;" parent="1" target="o8kuV6Bx12vgrlG-1OTU-31" edge="1">
          <mxGeometry width="50" height="50" relative="1" as="geometry">
            <mxPoint x="490" y="750" as="sourcePoint" />
            <mxPoint x="518.4000000000001" y="698.2" as="targetPoint" />
          </mxGeometry>
        </mxCell>
        <mxCell id="o8kuV6Bx12vgrlG-1OTU-72" value="" style="endArrow=none;html=1;rounded=0;exitX=0.849;exitY=0.995;exitDx=0;exitDy=0;exitPerimeter=0;" parent="1" source="o8kuV6Bx12vgrlG-1OTU-21" target="o8kuV6Bx12vgrlG-1OTU-60" edge="1">
          <mxGeometry width="50" height="50" relative="1" as="geometry">
            <mxPoint x="503.6199999999999" y="749" as="sourcePoint" />
            <mxPoint x="528.4000000000001" y="708.2" as="targetPoint" />
          </mxGeometry>
        </mxCell>
        <mxCell id="o8kuV6Bx12vgrlG-1OTU-73" value="" style="endArrow=none;html=1;rounded=0;entryX=0;entryY=0.5;entryDx=0;entryDy=0;" parent="1" target="o8kuV6Bx12vgrlG-1OTU-21" edge="1">
          <mxGeometry width="50" height="50" relative="1" as="geometry">
            <mxPoint x="280" y="740" as="sourcePoint" />
            <mxPoint x="450" y="790" as="targetPoint" />
          </mxGeometry>
        </mxCell>
        <mxCell id="o8kuV6Bx12vgrlG-1OTU-74" value="" style="endArrow=none;html=1;rounded=0;entryX=0.5;entryY=0;entryDx=0;entryDy=0;" parent="1" target="o8kuV6Bx12vgrlG-1OTU-32" edge="1">
          <mxGeometry width="50" height="50" relative="1" as="geometry">
            <mxPoint x="280" y="740" as="sourcePoint" />
            <mxPoint x="538.4000000000001" y="718.2" as="targetPoint" />
          </mxGeometry>
        </mxCell>
        <mxCell id="o8kuV6Bx12vgrlG-1OTU-75" value="" style="endArrow=none;html=1;rounded=0;exitX=0.5;exitY=1;exitDx=0;exitDy=0;" parent="1" source="o8kuV6Bx12vgrlG-1OTU-32" edge="1">
          <mxGeometry width="50" height="50" relative="1" as="geometry">
            <mxPoint x="523.6199999999999" y="769" as="sourcePoint" />
            <mxPoint x="280" y="920" as="targetPoint" />
          </mxGeometry>
        </mxCell>
        <mxCell id="o8kuV6Bx12vgrlG-1OTU-76" value="" style="endArrow=none;html=1;rounded=0;entryX=1;entryY=0;entryDx=0;entryDy=0;" parent="1" target="o8kuV6Bx12vgrlG-1OTU-63" edge="1">
          <mxGeometry width="50" height="50" relative="1" as="geometry">
            <mxPoint x="220" y="960" as="sourcePoint" />
            <mxPoint x="290" y="930" as="targetPoint" />
          </mxGeometry>
        </mxCell>
        <mxCell id="o8kuV6Bx12vgrlG-1OTU-77" value="" style="endArrow=none;html=1;rounded=0;exitX=0.5;exitY=1;exitDx=0;exitDy=0;entryX=0.5;entryY=0;entryDx=0;entryDy=0;" parent="1" source="o8kuV6Bx12vgrlG-1OTU-22" target="o8kuV6Bx12vgrlG-1OTU-61" edge="1">
          <mxGeometry width="50" height="50" relative="1" as="geometry">
            <mxPoint x="300" y="900" as="sourcePoint" />
            <mxPoint x="300" y="940" as="targetPoint" />
          </mxGeometry>
        </mxCell>
        <mxCell id="o8kuV6Bx12vgrlG-1OTU-78" value="" style="endArrow=none;html=1;rounded=0;exitX=1;exitY=1;exitDx=0;exitDy=0;" parent="1" source="o8kuV6Bx12vgrlG-1OTU-22" target="o8kuV6Bx12vgrlG-1OTU-62" edge="1">
          <mxGeometry width="50" height="50" relative="1" as="geometry">
            <mxPoint x="360" y="970" as="sourcePoint" />
            <mxPoint x="310" y="950" as="targetPoint" />
          </mxGeometry>
        </mxCell>
      </root>
    </mxGraphModel>
  </diagram>
</mxfile>
